<svg width="394" height="184" viewBox="0 0 394 184" fill="none" xmlns="http://www.w3.org/2000/svg">
<g clip-path="url(#clip0_102_24)">
<path d="M261.919 0.820786H330.547V13.4877H303.323V80.1267H289.71V13.4877H261.919V0.820786Z" fill="white"/>
<path d="M149.052 0.820801V13.4877H94.0421V33.8649H138.281V46.5318H94.0421V67.4598H149.052V80.1267H80.43V13.4877H80.4243V0.820801H149.052Z" fill="white"/>
<path d="M183.32 0.853867H165.506L229.312 80.1598H247.178L215.271 40.5341L247.127 0.914372L229.312 0.941902L206.352 29.4574L183.32 0.853867Z" fill="white"/>
<path d="M201.6 57.5025L192.679 46.4106L165.455 80.2203H183.32L201.6 57.5025Z" fill="white"/>
<path fill-rule="evenodd" clip-rule="evenodd" d="M80.907 80.1267L17.0151 0.78772H0V80.0936H13.6121V17.7393L63.8067 80.1267H80.907Z" fill="white"/>
<path d="M333.607 79.6423C332.61 79.6423 331.762 79.297 331.052 78.6063C330.342 77.9156 329.991 77.0794 330 76.0888C329.991 75.1254 330.342 74.2983 331.052 73.6076C331.762 72.9169 332.61 72.5715 333.607 72.5715C334.566 72.5715 335.405 72.9169 336.115 73.6076C336.835 74.2983 337.194 75.1254 337.204 76.0888C337.194 76.7431 337.028 77.3429 336.696 77.8791C336.355 78.4245 335.922 78.8517 335.377 79.1607C334.842 79.4788 334.252 79.6423 333.607 79.6423Z" fill="white"/>
<path d="M356.84 46.233H362.872V69.4723C362.863 71.6081 362.401 73.4349 361.498 74.9709C360.585 76.5068 359.321 77.6791 357.698 78.5062C356.084 79.3241 354.193 79.7423 352.044 79.7423C350.079 79.7423 348.318 79.3878 346.75 78.6971C345.182 78.0064 343.937 76.9703 343.024 75.607C342.101 74.2437 341.649 72.5442 341.649 70.5084H347.691C347.7 71.3991 347.903 72.1715 348.29 72.8168C348.677 73.4621 349.212 73.9528 349.895 74.2982C350.586 74.6436 351.38 74.8163 352.274 74.8163C353.243 74.8163 354.073 74.6163 354.746 74.2073C355.419 73.8074 355.936 73.2076 356.296 72.4078C356.646 71.6172 356.831 70.6356 356.84 69.4723V46.233Z" fill="white"/>
<path d="M387.691 55.3215C387.544 53.9128 386.898 52.8131 385.773 52.0315C384.638 51.2408 383.172 50.85 381.373 50.85C380.11 50.85 379.022 51.0409 378.118 51.4135C377.214 51.7952 376.513 52.3041 376.033 52.9494C375.554 53.5947 375.314 54.3309 375.295 55.158C375.295 55.8487 375.461 56.4485 375.784 56.9484C376.107 57.4573 376.54 57.8845 377.103 58.2299C377.656 58.5843 378.274 58.8751 378.948 59.1114C379.63 59.3477 380.313 59.5477 380.995 59.7113L384.14 60.4838C385.404 60.7746 386.631 61.1655 387.802 61.6653C388.973 62.1561 390.034 62.7832 390.965 63.5375C391.897 64.2919 392.635 65.2007 393.179 66.2641C393.723 67.3274 394 68.5725 394 70.0085C394 71.9443 393.502 73.6439 392.496 75.1162C391.491 76.5794 390.043 77.7246 388.143 78.5517C386.252 79.3697 383.965 79.7877 381.272 79.7877C378.671 79.7877 376.402 79.3879 374.493 78.5881C372.575 77.7974 371.08 76.634 370.001 75.1071C368.922 73.5803 368.341 71.7171 368.258 69.5268H374.235C374.318 70.6719 374.687 71.6263 375.314 72.3988C375.95 73.1622 376.78 73.7257 377.795 74.1074C378.819 74.48 379.962 74.6709 381.226 74.6709C382.545 74.6709 383.707 74.4709 384.712 74.0801C385.708 73.6893 386.492 73.1441 387.055 72.4352C387.627 71.7353 387.913 70.9083 387.922 69.9631C387.913 69.0997 387.654 68.3816 387.156 67.8181C386.649 67.2547 385.948 66.7821 385.053 66.4004C384.15 66.0187 383.098 65.6733 381.899 65.3734L378.081 64.41C375.323 63.7102 373.137 62.6469 371.541 61.22C369.937 59.7931 369.143 57.9027 369.143 55.5306C369.143 53.5857 369.678 51.8771 370.758 50.4138C371.827 48.9506 373.294 47.8145 375.148 47.0056C377.011 46.1877 379.114 45.7877 381.456 45.7877C383.836 45.7877 385.92 46.1877 387.719 47.0056C389.517 47.8145 390.929 48.9415 391.952 50.3774C392.976 51.8134 393.511 53.4584 393.539 55.3215H387.691Z" fill="white"/>
</g>
<path d="M393.628 103.788V116.455H338.618V136.832H382.857V149.499H338.618V170.427H393.628V183.094H325.006V116.455H325V103.788H393.628Z" fill="white"/>
<rect x="210" y="103.788" width="14" height="79" fill="white"/>
<path d="M181.513 103.788H195.741V155.103C195.741 160.728 194.412 165.675 191.753 169.945C189.119 174.215 185.412 177.552 180.631 179.955C175.849 182.333 170.263 183.522 163.871 183.522C157.453 183.522 151.854 182.333 147.072 179.955C142.291 177.552 138.584 174.215 135.95 169.945C133.317 165.675 132 160.728 132 155.103V103.788H146.229V153.914C146.229 157.187 146.945 160.102 148.376 162.658C149.834 165.215 151.879 167.222 154.513 168.68C157.146 170.111 160.266 170.827 163.871 170.827C167.476 170.827 170.595 170.111 173.229 168.68C175.888 167.222 177.933 165.215 179.365 162.658C180.797 160.102 181.513 157.187 181.513 153.914V103.788Z" fill="white"/>
<rect x="74.125" y="140.788" width="43.875" height="12" fill="white"/>
<path fill-rule="evenodd" clip-rule="evenodd" d="M28 137.788C28 119.01 43.2223 103.788 62 103.788H84C99.662 103.788 112.851 114.378 116.796 128.788H100.586C97.4995 121.724 90.4512 116.788 82.25 116.788H63.75C52.7043 116.788 43.75 125.742 43.75 136.788V150.788C43.75 161.833 52.7043 170.788 63.75 170.788H82.25C93.2956 170.788 102.25 161.833 102.25 150.788V140.788H118V149.788C118 168.565 102.778 183.788 84 183.788H62C43.2223 183.788 28 168.565 28 149.788V137.788Z" fill="white"/>
<path fill-rule="evenodd" clip-rule="evenodd" d="M238.076 104H238V183H278C285.054 183 291.606 180.852 297.038 177.174L288.39 166.442C285.158 168.685 281.233 170 277 170H252V121.28L238.076 104ZM302.604 172.465L293.552 161.23C295.728 158.029 297 154.163 297 150V137C297 125.954 288.046 117 277 117H257.911L247.436 104H278C296.778 104 312 119.222 312 138V149C312 158.099 308.426 166.363 302.604 172.465Z" fill="white"/>
<defs>
<clipPath id="clip0_102_24">
<rect width="394" height="80" fill="white" transform="translate(0 0.78772)"/>
</clipPath>
</defs>
</svg>
